<?xml version="1.0" encoding="utf-8"?>
<!-- Generator: Adobe Illustrator 28.0.0, SVG Export Plug-In . SVG Version: 6.00 Build 0)  -->
<svg version="1.1" id="Layer_1" xmlns="http://www.w3.org/2000/svg" xmlns:xlink="http://www.w3.org/1999/xlink" x="0px" y="0px"
	 viewBox="0 0 283.9 81.8" style="enable-background:new 0 0 283.9 81.8;" xml:space="preserve">
<style type="text/css">
	.st0{fill:#FFFFFF;}
	.st1{font-family:'Verdana-Bold';}
	.st2{font-size:45.3611px;}
	.st3{fill:#231F20;}
	.st4{fill:#010101;}
	.st5{fill:#FFFFFF;stroke:#010101;stroke-width:0.9175;stroke-miterlimit:10;}
	.st6{fill:#FFFFFF;stroke:#010101;stroke-width:0.9175;stroke-linecap:round;stroke-linejoin:round;stroke-miterlimit:10;}
	.st7{fill:#FFFFFF;stroke:#010101;stroke-width:0.6117;stroke-miterlimit:10;}
	.st8{fill:#BFD73F;stroke:#010101;stroke-width:0.6898;stroke-miterlimit:10;}
	.st9{fill:#010101;stroke:#010101;stroke-width:0.6363;stroke-miterlimit:10;}
	.st10{fill:#BFD73F;}
	.st11{fill:none;stroke:#C4DA49;stroke-width:0.6117;stroke-miterlimit:10;}
	.st12{fill:none;stroke:#FFFFFF;stroke-width:9.175111e-02;stroke-miterlimit:10;}
</style>
<text transform="matrix(1 0 0 1 53.6134 51.7677)" class="st0 st1 st2">KITCHEN</text>
<path class="st3" d="M213,69.1c0-0.1,0.1-0.4,0.2-0.8c0.1-0.4,0.2-0.8,0.3-1.2c0.1-0.5,0.5-2.9,1.2-7.1c0,0.2,0.2-1.3,0.8-4.6
	c0.4-2.3,0.9-4.3,1.5-6.1s1.6-3.3,2.7-4.4c0.7-0.6,1.3-1.1,1.9-1.3s1.3-0.4,2-0.5c0.2,0,0.5-0.1,0.7-0.2s0.4-0.1,0.5-0.1
	s0.2,0.1,0.2,0.2c0,0.2-0.2,0.5-0.5,0.9c-0.2,0.2-0.4,0.3-0.5,0.4c-0.2,0.1-0.3,0.1-0.5,0.1s-0.3,0-0.4,0.1c-0.6,0.1-1,0.2-1.4,0.5
	c-0.4,0.2-0.8,0.6-1.2,1.1c-0.8,1-1.4,2.2-1.8,3.5s-0.7,3-1,4.9c-0.1,0.6-0.1,1.1-0.2,1.4l-0.7,4.2l0,0c0.9-1.6,2-2.9,3.1-3.9
	s2-1.5,2.8-1.5s1.3,0.6,1.3,1.8c0,0.6-0.1,1.3-0.2,2.2l-0.6,2.8c-0.6,2.9-0.9,4.6-0.9,5.1c0,0.4,0.1,0.5,0.4,0.5s0.6-0.2,0.9-0.7
	c0.3-0.4,0.6-1,0.9-1.8c0,0,0.1-0.1,0.1-0.2s0.1-0.2,0.2-0.2s0.2,0.1,0.2,0.4l-0.1,0.5c-0.1,0.7-0.4,1.4-0.9,2
	c-0.4,0.6-0.9,1.1-1.4,1.5s-1,0.6-1.5,0.6c-0.7,0-1.1-0.6-1.1-1.7c0-0.6,0.1-1.2,0.2-2s0.3-1.7,0.6-2.8c0.2-1.1,0.4-2.1,0.6-2.8
	c0.1-0.7,0.2-1.4,0.2-1.9c0-0.4,0-0.6-0.1-0.8c-0.1-0.1-0.2-0.2-0.5-0.2c-0.6,0-1.3,0.4-2,1.2s-1.3,1.8-1.9,3s-0.9,2.3-1.1,3.3
	l-0.5,2.6c-0.1,0.5-0.4,1-0.9,1.5s-1,0.7-1.4,0.7C213.1,69.3,213,69.2,213,69.1z"/>
<path class="st3" d="M227.9,68.2c-0.5-0.7-0.8-1.6-0.8-2.9c0-1.5,0.4-3.1,1.1-4.8s1.6-3.1,2.7-4.2c1.1-1.1,2.2-1.7,3.4-1.7
	c1,0,1.6,0.6,1.6,1.9c0,1-0.3,2-0.9,3s-1.4,1.8-2.4,2.6s-2.1,1.3-3.3,1.7c0,1.1,0.2,1.9,0.5,2.3c0.3,0.5,0.9,0.7,1.5,0.7
	c0.7,0,1.4-0.2,2-0.7s1.1-1.1,1.5-1.9c0.1-0.1,0.1-0.2,0.2-0.3s0.1-0.1,0.2-0.1c0.2,0,0.2,0.1,0.2,0.4c0,0.5-0.3,1.2-0.8,2
	s-1.2,1.5-2.1,2.1c-0.8,0.6-1.7,0.9-2.5,0.9C229.2,69.3,228.4,68.9,227.9,68.2z M231.9,61.8c0.6-0.4,1.1-0.9,1.5-1.5
	s0.6-1.4,0.6-2.2c0-0.9-0.3-1.4-1-1.4c-0.5,0-1.1,0.3-1.5,0.9c-0.5,0.6-0.9,1.3-1.2,2.2s-0.6,1.7-0.7,2.5c0.1,0.1,0.4,0.1,0.7,0.1
	C230.7,62.3,231.3,62.1,231.9,61.8z"/>
<path class="st3" d="M238,68.7c-0.2-0.4-0.3-0.8-0.3-1.4c0-0.4,0-0.8,0.1-1.3l1.8-11.8c0.4-2.7,0.9-4.8,1.5-6.3s1.3-2.5,2.2-3.2
	c0.5-0.4,1-0.7,1.5-0.8c0.5-0.2,1.3-0.4,2.4-0.7c0.5-0.1,0.8-0.2,1-0.2c0.1-0.1,0.2-0.1,0.3-0.1s0.2,0.1,0.2,0.2
	c0,0.1,0,0.2-0.1,0.4s-0.2,0.3-0.4,0.5s-0.4,0.3-0.6,0.4c-0.2,0.1-0.4,0.1-0.7,0.1c-1.2,0.1-2,0.5-2.5,1.1c-1,1.1-1.7,3.2-2.2,6.2
	L240,65.9c0,0.1,0,0.3,0,0.5c0,0.4,0.1,0.7,0.4,0.7c0.6,0,1.3-0.9,2.1-2.7c0.1-0.2,0.2-0.3,0.3-0.3s0.2,0.1,0.2,0.4
	c0,0.7-0.2,1.4-0.7,2.1c-0.5,0.8-1,1.4-1.7,1.9c-0.6,0.5-1.2,0.8-1.7,0.8C238.5,69.3,238.2,69.1,238,68.7z"/>
<path class="st3" d="M237.2,80.1c-0.9-0.6-1.5-1.4-1.8-2.4c0-0.2-0.1-0.3-0.1-0.4c0-0.4,0.1-0.7,0.4-1.1c0.3-0.4,0.6-0.6,0.9-0.7
	l0.2-0.1c0.1,0,0.1,0.1,0.2,0.2c0,0.1,0,0.2,0,0.2c0.2,1.3,0.6,2.2,1.2,2.9s1.5,1,2.6,1c1.2,0,2.2-0.6,3-1.8s1.3-3,1.7-5.5l2.1-13.5
	c0.1-0.7,0.2-1.2,0.2-1.5s-0.1-0.4-0.2-0.4c-0.2,0-0.4,0.1-0.7,0.4c-0.3,0.3-0.5,0.6-0.8,1.1c-0.1,0.1-0.2,0.3-0.3,0.4
	c-0.1,0.2-0.2,0.3-0.2,0.3c-0.1,0.1-0.1,0.1-0.2,0.1s-0.2-0.1-0.2-0.3c0-0.4,0.2-0.9,0.7-1.6c0.4-0.7,1-1.3,1.5-1.8
	c0.6-0.5,1.1-0.8,1.5-0.8s0.6,0.1,0.8,0.4c0.2,0.3,0.2,0.6,0.2,1.1c-0.1,0.6-0.2,1.5-0.4,2.7c-0.1,0.7-0.2,1.2-0.2,1.4l0,0
	c0.8-1.4,1.7-2.7,2.8-3.9s2-1.7,2.8-1.7c0.6,0,1,0.3,1.2,0.9c0.2,0.6,0.3,1.5,0.3,2.8c0,1.7-0.4,3.4-1.2,5.1c-0.8,1.7-1.8,3.1-3,4.2
	s-2.5,1.6-3.8,1.6c-0.2,0-0.4,0-0.5-0.1l-0.5,3c-0.3,1.7-0.8,3.2-1.5,4.6c-0.7,1.3-1.6,2.4-2.6,3.1s-2.2,1.1-3.4,1.1
	C239,80.9,238,80.6,237.2,80.1z M252.4,66.1c0.6-0.9,1.1-2,1.5-3.4c0.4-1.3,0.5-2.6,0.5-3.7c0-0.7-0.1-1.1-0.1-1.4
	c-0.1-0.3-0.3-0.4-0.5-0.4c-0.5,0-1.2,0.4-1.9,1.3c-0.7,0.8-1.4,1.9-2,3.1c-0.6,1.2-1,2.4-1.1,3.5l-0.3,1.9c0.3,0.2,0.6,0.3,0.9,0.4
	c0.3,0.1,0.6,0.1,1,0.1C251.1,67.5,251.8,67,252.4,66.1z"/>
<path class="st3" d="M259,68.2c-0.5-0.7-0.8-1.6-0.8-2.9c0-1.5,0.4-3.1,1.1-4.8s1.6-3.1,2.7-4.2c1.1-1.1,2.2-1.7,3.4-1.7
	c1,0,1.6,0.6,1.6,1.9c0,1-0.3,2-0.9,3s-1.4,1.8-2.4,2.6s-2.1,1.3-3.3,1.7c0,1.1,0.2,1.9,0.5,2.3c0.3,0.5,0.9,0.7,1.5,0.7
	c0.7,0,1.4-0.2,2-0.7s1.1-1.1,1.5-1.9c0.1-0.1,0.1-0.2,0.2-0.3s0.1-0.1,0.2-0.1c0.2,0,0.2,0.1,0.2,0.4c0,0.5-0.3,1.2-0.8,2
	s-1.2,1.5-2.1,2.1c-0.8,0.6-1.7,0.9-2.5,0.9C260.2,69.3,259.5,68.9,259,68.2z M262.9,61.8c0.6-0.4,1.1-0.9,1.5-1.5s0.6-1.4,0.6-2.2
	c0-0.9-0.3-1.4-1-1.4c-0.5,0-1.1,0.3-1.5,0.9c-0.5,0.6-0.9,1.3-1.2,2.2c-0.3,0.9-0.6,1.7-0.7,2.5c0.1,0.1,0.4,0.1,0.7,0.1
	C261.8,62.3,262.3,62.1,262.9,61.8z"/>
<path class="st3" d="M269.3,69.2c-0.1,0-0.1-0.1-0.1-0.1c0-0.1,0.1-0.2,0.2-0.4s0.2-0.5,0.3-0.8c0.1-0.4,0.1-0.8,0.2-1.2
	s0.1-0.7,0.2-1c0.5-2.7,0.8-4.7,1-5.7c0.2-1.1,0.2-1.9,0.2-2.4c0-0.3,0-0.4-0.1-0.6c0-0.1-0.1-0.2-0.3-0.2c-0.2,0-0.4,0.1-0.7,0.4
	c-0.3,0.3-0.5,0.6-0.8,1.1c-0.1,0.2-0.2,0.3-0.3,0.5c-0.1,0.1-0.1,0.2-0.2,0.3c0,0.1-0.1,0.1-0.2,0.1s-0.1,0-0.2-0.1
	s-0.1-0.1-0.1-0.2c0-0.4,0.2-0.9,0.6-1.6c0.4-0.7,0.9-1.3,1.5-1.8s1.1-0.8,1.6-0.8c0.4,0,0.6,0.2,0.8,0.5c0.2,0.3,0.2,0.8,0.2,1.4
	c0,0.9-0.2,2.1-0.6,3.6h0.1c1.9-3.6,3.7-5.4,5.3-5.4c0.4,0,0.7,0.1,1,0.3c0.2,0.2,0.3,0.6,0.3,1s-0.1,0.9-0.3,1.3
	c-0.2,0.5-0.4,0.8-0.7,1.1c-0.3,0.3-0.5,0.5-0.7,0.5c-0.1,0-0.2-0.1-0.2-0.3c0.1-0.3,0.1-0.5,0.1-0.7c0-0.5-0.3-0.7-0.8-0.7
	c-0.6,0-1.2,0.4-1.9,1.1c-0.6,0.7-1.2,1.6-1.6,2.6c-0.5,1-0.8,2-1,2.8c-0.2,0.9-0.4,1.9-0.5,2.9c0,0.4-0.2,0.8-0.5,1.2
	s-0.7,0.7-1.1,1s-0.7,0.4-0.9,0.4C269.5,69.3,269.4,69.2,269.3,69.2z"/>
<g>
	<path class="st4" d="M20.4,38.9L20.4,38.9c-1,0-1.8-0.8-1.8-1.8v-9.7c0-1,0.8-1.8,1.8-1.8l0,0c1,0,1.8,0.8,1.8,1.8v9.7
		C22.2,38.1,21.4,38.9,20.4,38.9z"/>
	<path class="st4" d="M52.7,38.9L52.7,38.9c-1,0-1.8-0.8-1.8-1.8v-9.7c0-1,0.8-1.8,1.8-1.8l0,0c1,0,1.8,0.8,1.8,1.8v9.7
		C54.5,38.1,53.7,38.9,52.7,38.9z"/>
	<g>
		<polygon class="st3" points="57.3,57.4 59.7,59.6 58.4,61.5 55.6,60.2 		"/>
		<circle class="st3" cx="59.8" cy="59.7" r="0.5"/>
		<circle class="st3" cx="59.5" cy="60.3" r="0.5"/>
		<circle class="st3" cx="59.1" cy="61" r="0.5"/>
		<circle class="st3" cx="58.6" cy="61.5" r="0.5"/>
	</g>
	<polygon class="st4" points="14.7,58 12.3,60.1 13.6,62.1 16.4,60.8 	"/>
	<circle class="st4" cx="47.3" cy="50.3" r="2.2"/>
	<circle class="st4" cx="25.7" cy="50.3" r="2.2"/>
	<path class="st5" d="M38.1,72.6H35c-3,0-5.6-2.2-6.1-5.1l-2.8-15.4c-0.7-3.8,2.2-7.3,6.1-7.3h8.7c3.9,0,6.8,3.5,6.1,7.3l-2.8,15.4
		C43.7,70.4,41.1,72.6,38.1,72.6z"/>
	<path class="st5" d="M43.4,46.5H29.7c-5.2,0-9.3-4.2-9.3-9.3v-9.5c0-5.2,4.2-9.3,9.3-9.3h13.7c5.2,0,9.3,4.2,9.3,9.3v9.5
		C52.8,42.3,48.6,46.5,43.4,46.5z"/>
	<g>
		<path class="st6" d="M42.7,5.8c-0.7,0-1.4,0.2-1.9,0.5c-0.2-2-1.9-3.5-4-3.5s-3.8,1.6-4,3.7h-0.1c-0.6-0.4-1.4-0.7-2.2-0.7
			c-2.2,0-4,1.8-4,4s1.7,3.9,3.9,4l0.5,5.7c1.2-0.6,3.5-1,6.1-1c2.7,0,5.1,0.4,6.2,1l0.3-5.8c1.9-0.3,3.3-2,3.3-3.9
			C46.7,7.6,44.9,5.8,42.7,5.8z"/>
		<path class="st6" d="M37,15.6c2.7,0,5.1,0.4,6.2,1"/>
		<path class="st6" d="M30.9,16.5c1.2-0.6,3.5-1,6.1-1"/>
	</g>
	
		<rect x="21.1" y="51.7" transform="matrix(0.4414 -0.8973 0.8973 0.4414 -33.7948 50.7933)" class="st4" width="5.6" height="1.6"/>
	<rect x="48.4" y="49.8" transform="matrix(0.866 -0.5 0.5 0.866 -19.6363 31.5863)" class="st4" width="1.5" height="5.3"/>
	<path class="st7" d="M52.4,53.2l5.2,3.6c1,0.7,1.2,2.1,0.5,3.1l0,0c-0.7,1-2.1,1.2-3.1,0.5l-5.2-3.6c-1-0.7-1.2-2.1-0.5-3.1l0,0
		C50,52.8,51.4,52.5,52.4,53.2z"/>
	<path class="st7" d="M22.6,57.4l-5.3,3.5c-1,0.7-2.4,0.4-3.1-0.6l0,0c-0.7-1-0.4-2.4,0.6-3.1l5.3-3.5c1-0.7,2.4-0.4,3.1,0.6l0,0
		C23.9,55.3,23.6,56.7,22.6,57.4z"/>
	<path class="st4" d="M67.4,50.9c0.2-0.7,0.2-1.9-0.6-2.5c-0.9-0.7-1.8-0.3-2.6,0.2c-0.7,0.5-1.3,1.5-1.4,1.9
		c-0.3,1,0.1,1.8,0.3,2.4c0.1,0.2-0.2,0.5-0.3,0.8c-0.4,0.6-2.3,3.5-2.9,4.3l-0.3-0.2l-3.2,4.8c-0.1,0.2-0.1,0.5,0.1,0.7l0.3,0.2
		c0.3,0.2,0.6,0.1,0.8-0.2l3.2-4.7l-0.3-0.2c0.5-0.8,2.2-3.3,2.7-4c0.6-0.8,0.5-0.9,0.8-0.9c0.3-0.1,1,0.1,1.8-0.2
		C66.4,52.9,67.2,51.7,67.4,50.9z M57.3,62.9C57.2,63,57,63.1,56.9,63s-0.2-0.3-0.1-0.4l0.7-1c0.1-0.1,0.3-0.2,0.4-0.1
		c0.1,0.1,0.2,0.3,0.1,0.4L57.3,62.9z"/>
	<path class="st4" d="M6.3,48.2c-0.8,0.4-1.6,1-2,1.3c-0.4,0.4-0.6,0.7-0.4,1.1c0.2,0.4,2,2.7,2.2,2.9c0.1,0.2,0.3,0.2,1.2,0.4
		s1.1,0.2,1.5,0.8c0.3,0.5,2,3,2.7,4l-0.3,0.2l3.2,4.8c0.1,0.2,0.4,0.3,0.7,0.1l0.3-0.2c0.3-0.2,0.3-0.5,0.1-0.8l-3.2-4.7L12,58.3
		l-2.8-4.2c0,0-0.4-0.4-0.1-1.3c0.2-0.9,0.4-1.1,0.1-1.7c-0.3-0.5-1.7-2.8-1.8-3C7.5,48.3,7.2,47.8,6.3,48.2z M6.5,52.9
		c-0.1,0-0.1,0-0.2,0l-1.9-2.6c0-0.1,0-0.1,0-0.2c0.1,0,0.1,0,0.2,0l1.9,2.6C6.6,52.8,6.6,52.9,6.5,52.9z M7,52.6
		c-0.1,0-0.1,0-0.2,0l-1.9-2.7c0-0.1,0-0.1,0-0.2c0.1,0,0.1,0,0.2,0L7,52.4C7.1,52.4,7.1,52.5,7,52.6z M5.5,49.4c0-0.1,0-0.1,0-0.2
		c0.1,0,0.1,0,0.2,0l1.8,2.7c0,0.1,0,0.1,0,0.2c-0.1,0-0.1,0-0.2,0L5.5,49.4z M14.6,62l0.7,1c0.1,0.1,0.1,0.3-0.1,0.4
		s-0.3,0.1-0.4-0.1l-0.7-1C14,62.2,14,62,14.2,61.9S14.5,61.9,14.6,62z M8.1,51.7c0,0.1,0,0.1,0,0.2c-0.1,0-0.1,0-0.2,0l-1.8-2.7
		c0-0.1,0-0.1,0-0.2c0.1,0,0.1,0,0.2,0L8.1,51.7z M8.6,51.3c0,0.1,0,0.1,0,0.2c-0.1,0-0.1,0-0.2,0l-1.7-2.8c0-0.1,0-0.1,0-0.2
		c0.1,0,0.1,0,0.2,0L8.6,51.3z"/>
	<circle class="st4" cx="12.2" cy="60.3" r="0.5"/>
	<circle class="st4" cx="12.5" cy="60.9" r="0.5"/>
	<circle class="st4" cx="12.9" cy="61.6" r="0.5"/>
	<circle class="st3" cx="13.4" cy="62.1" r="0.5"/>
	<path class="st8" d="M38.9,69.7h-4.8c-1.6,0-2.9-1.1-3.2-2.6l-2.6-14.5c-0.4-2,1.2-3.8,3.2-3.8h10c2,0,3.5,1.8,3.2,3.8l-2.6,14.5
		C41.8,68.6,40.5,69.7,38.9,69.7z"/>
	<ellipse class="st4" cx="36.6" cy="78.4" rx="7.9" ry="1.8"/>
	<g>
		<path class="st9" d="M42.7,41.9H30.4c-3.1,0-5.6-2.5-5.6-5.6v-7.5c0-3.1,2.5-5.6,5.6-5.6h12.4c3.1,0,5.6,2.5,5.6,5.6v7.5
			C48.3,39.4,45.8,41.9,42.7,41.9z"/>
		<g>
			<path class="st10" d="M32.3,31.3L32.3,31.3c-0.7,0-1.2-0.5-1.2-1.2l0,0c0-0.7,0.5-1.2,1.2-1.2h0.1c0.7,0,1.2,0.5,1.2,1.2l0,0
				C33.5,30.8,32.9,31.3,32.3,31.3z"/>
			<path class="st10" d="M40.9,31.3L40.9,31.3c-0.7,0-1.2-0.5-1.2-1.2l0,0c0-0.7,0.5-1.2,1.2-1.2H41c0.7,0,1.2,0.5,1.2,1.2l0,0
				C42.1,30.8,41.5,31.3,40.9,31.3z"/>
			<path class="st10" d="M36.6,35.9c1.6,0,2.9-0.9,2.9-1.9h-5.8C33.7,35,35,35.9,36.6,35.9z"/>
		</g>
		<g>
			<path class="st11" d="M41.8,40.1H31.3c-2.4,0-4.3-1.9-4.3-4.3v-6.5c0-2.4,1.9-4.3,4.3-4.3h10.4c2.4,0,4.3,1.9,4.3,4.3v6.5
				C46,38.2,44.1,40.1,41.8,40.1z"/>
			<path class="st12" d="M41.8,40.1H31.3c-2.4,0-4.3-1.9-4.3-4.3v-6.5c0-2.4,1.9-4.3,4.3-4.3h10.4c2.4,0,4.3,1.9,4.3,4.3v6.5
				C46,38.2,44.1,40.1,41.8,40.1z"/>
		</g>
	</g>
</g>
</svg>
