<?xml version="1.0" encoding="utf-8"?>
<!-- Generator: Adobe Illustrator 28.1.0, SVG Export Plug-In . SVG Version: 6.00 Build 0)  -->
<svg version="1.1" id="Layer_1" xmlns="http://www.w3.org/2000/svg" xmlns:xlink="http://www.w3.org/1999/xlink" x="0px" y="0px"
	 viewBox="0 0 44.1 55" style="enable-background:new 0 0 44.1 55;" xml:space="preserve">
<style type="text/css">
	.st0{fill:#010101;}
	.st1{fill:#231F20;}
	.st2{fill:#FFFFFF;stroke:#010101;stroke-width:0.6007;stroke-miterlimit:10;}
	.st3{fill:#FFFFFF;stroke:#010101;stroke-width:0.6007;stroke-linecap:round;stroke-linejoin:round;stroke-miterlimit:10;}
	.st4{fill:#FFFFFF;stroke:#010101;stroke-width:0.4005;stroke-miterlimit:10;}
	.st5{fill:#BFD73F;stroke:#010101;stroke-width:0.4516;stroke-miterlimit:10;}
	.st6{fill:#010101;stroke:#010101;stroke-width:0.4166;stroke-miterlimit:10;}
	.st7{fill:#BFD73F;}
	.st8{fill:none;stroke:#C4DA49;stroke-width:0.4005;stroke-miterlimit:10;}
	.st9{fill:none;stroke:#FFFFFF;stroke-width:6.007348e-02;stroke-miterlimit:10;}
</style>
<g>
	<path class="st0" d="M11.9,25.7L11.9,25.7c-0.7,0-1.2-0.5-1.2-1.2v-6.4c0-0.7,0.5-1.2,1.2-1.2l0,0c0.7,0,1.2,0.5,1.2,1.2v6.4
		C13.1,25.2,12.6,25.7,11.9,25.7z"/>
	<path class="st0" d="M33.1,25.7L33.1,25.7c-0.7,0-1.2-0.5-1.2-1.2v-6.4c0-0.7,0.5-1.2,1.2-1.2l0,0c0.7,0,1.2,0.5,1.2,1.2v6.4
		C34.3,25.2,33.7,25.7,33.1,25.7z"/>
	<g>
		<polygon class="st1" points="36.1,37.9 37.7,39.3 36.8,40.5 35,39.7 		"/>
		<circle class="st1" cx="37.7" cy="39.4" r="0.3"/>
		<circle class="st1" cx="37.5" cy="39.8" r="0.3"/>
		<circle class="st1" cx="37.3" cy="40.2" r="0.3"/>
		<circle class="st1" cx="37" cy="40.5" r="0.3"/>
	</g>
	<polygon class="st0" points="8.2,38.3 6.6,39.6 7.5,40.9 9.3,40.1 	"/>
	<circle class="st0" cx="29.6" cy="33.2" r="1.4"/>
	<circle class="st0" cx="15.4" cy="33.2" r="1.4"/>
	<path class="st2" d="M23.5,47.8h-2c-2,0-3.7-1.4-4-3.3l-1.8-10.1c-0.5-2.5,1.4-4.8,4-4.8h5.7c2.6,0,4.5,2.3,4,4.8l-1.8,10.1
		C27.2,46.4,25.5,47.8,23.5,47.8z"/>
	<path class="st2" d="M27,30.7h-9c-3.4,0-6.1-2.7-6.1-6.1v-6.2c0-3.4,2.7-6.1,6.1-6.1h9c3.4,0,6.1,2.7,6.1,6.1v6.2
		C33.2,28,30.4,30.7,27,30.7z"/>
	<g>
		<path class="st3" d="M26.5,4.1c-0.5,0-0.9,0.1-1.2,0.3c-0.1-1.3-1.2-2.3-2.6-2.3c-1.4,0-2.5,1-2.6,2.4H20
			c-0.4-0.3-0.9-0.5-1.4-0.5c-1.4,0-2.6,1.2-2.6,2.6s1.1,2.6,2.6,2.6l0.3,3.7c0.8-0.4,2.3-0.7,4-0.7c1.8,0,3.3,0.3,4.1,0.7l0.2-3.8
			c1.2-0.2,2.2-1.3,2.2-2.6C29.2,5.3,28,4.1,26.5,4.1z"/>
		<path class="st3" d="M22.8,10.5c1.8,0,3.3,0.3,4.1,0.7"/>
		<path class="st3" d="M18.8,11.1c0.8-0.4,2.3-0.7,4-0.7"/>
	</g>
	<rect x="12.4" y="34.2" transform="matrix(0.4414 -0.8973 0.8973 0.4414 -23.1887 32.1614)" class="st0" width="3.7" height="1"/>
	<rect x="30.3" y="33" transform="matrix(0.866 -0.5 0.5 0.866 -13.2202 20.0333)" class="st0" width="1" height="3.5"/>
	<path class="st4" d="M32.9,35.1l3.4,2.4c0.7,0.5,0.8,1.4,0.3,2l0,0c-0.5,0.7-1.4,0.8-2,0.3l-3.4-2.4c-0.7-0.5-0.8-1.4-0.3-2l0,0
		C31.3,34.8,32.2,34.7,32.9,35.1z"/>
	<path class="st4" d="M13.4,37.9l-3.5,2.3c-0.7,0.5-1.6,0.3-2-0.4l0,0c-0.5-0.7-0.3-1.6,0.4-2l3.5-2.3c0.7-0.5,1.6-0.3,2,0.4l0,0
		C14.2,36.5,14,37.4,13.4,37.9z"/>
	<path class="st0" d="M42.7,33.6c0.1-0.5,0.1-1.2-0.4-1.6c-0.6-0.5-1.2-0.2-1.7,0.1c-0.5,0.3-0.9,1-0.9,1.2
		c-0.2,0.7,0.1,1.2,0.2,1.6c0.1,0.1-0.1,0.3-0.2,0.5c-0.3,0.4-1.5,2.3-1.9,2.8l-0.2-0.1l-2.1,3.1c-0.1,0.1-0.1,0.3,0.1,0.5l0.2,0.1
		c0.2,0.1,0.4,0.1,0.5-0.1l2.1-3.1l-0.2-0.1c0.3-0.5,1.4-2.2,1.8-2.6c0.4-0.5,0.3-0.6,0.5-0.6c0.2-0.1,0.7,0.1,1.2-0.1
		C42.1,34.9,42.6,34.1,42.7,33.6z M36.1,41.5c-0.1,0.1-0.2,0.1-0.3,0.1c-0.1-0.1-0.1-0.2-0.1-0.3l0.5-0.7c0.1-0.1,0.2-0.1,0.3-0.1
		s0.1,0.2,0.1,0.3L36.1,41.5z"/>
	<path class="st0" d="M2.7,31.8c-0.5,0.3-1,0.7-1.3,0.9c-0.3,0.3-0.4,0.5-0.3,0.7c0.1,0.3,1.3,1.8,1.4,1.9c0.1,0.1,0.2,0.1,0.8,0.3
		c0.6,0.1,0.7,0.1,1,0.5c0.2,0.3,1.3,2,1.8,2.6l-0.2,0.1L8,42c0.1,0.1,0.3,0.2,0.5,0.1l0.2-0.1c0.2-0.1,0.2-0.3,0.1-0.5l-2.1-3.1
		l-0.2,0.1l-1.8-2.7c0,0-0.3-0.3-0.1-0.9c0.1-0.6,0.3-0.7,0.1-1.1c-0.2-0.3-1.1-1.8-1.2-2C3.5,31.9,3.3,31.6,2.7,31.8z M2.8,34.9
		c-0.1,0-0.1,0-0.1,0l-1.2-1.7c0-0.1,0-0.1,0-0.1c0.1,0,0.1,0,0.1,0l1.2,1.7C2.9,34.8,2.9,34.9,2.8,34.9z M3.2,34.7
		c-0.1,0-0.1,0-0.1,0l-1.2-1.8c0-0.1,0-0.1,0-0.1c0.1,0,0.1,0,0.1,0l1.2,1.8C3.2,34.6,3.2,34.7,3.2,34.7z M2.2,32.6
		c0-0.1,0-0.1,0-0.1c0.1,0,0.1,0,0.1,0l1.2,1.8c0,0.1,0,0.1,0,0.1c-0.1,0-0.1,0-0.1,0L2.2,32.6z M8.1,40.9l0.5,0.7
		c0.1,0.1,0.1,0.2-0.1,0.3c-0.1,0.1-0.2,0.1-0.3-0.1l-0.5-0.7c-0.1-0.1-0.1-0.2,0.1-0.3S8.1,40.8,8.1,40.9z M3.9,34.1
		c0,0.1,0,0.1,0,0.1c-0.1,0-0.1,0-0.1,0l-1.2-1.8c0-0.1,0-0.1,0-0.1c0.1,0,0.1,0,0.1,0L3.9,34.1z M4.2,33.9c0,0.1,0,0.1,0,0.1
		c-0.1,0-0.1,0-0.1,0L3,32.2c0-0.1,0-0.1,0-0.1C3,32,3,32,3.1,32L4.2,33.9z"/>
	<circle class="st0" cx="6.6" cy="39.8" r="0.3"/>
	<circle class="st0" cx="6.8" cy="40.2" r="0.3"/>
	<circle class="st0" cx="7" cy="40.6" r="0.3"/>
	<circle class="st1" cx="7.4" cy="40.9" r="0.3"/>
	<path class="st5" d="M24.1,45.9h-3.1c-1,0-1.9-0.7-2.1-1.7l-1.7-9.5c-0.3-1.3,0.8-2.5,2.1-2.5h6.5c1.3,0,2.3,1.2,2.1,2.5l-1.7,9.5
		C26,45.2,25.1,45.9,24.1,45.9z"/>
	<ellipse class="st0" cx="22.6" cy="51.6" rx="5.2" ry="1.2"/>
	<g>
		<path class="st6" d="M26.5,27.7h-8.1c-2,0-3.7-1.6-3.7-3.7v-4.9c0-2,1.6-3.7,3.7-3.7h8.1c2,0,3.7,1.6,3.7,3.7V24
			C30.2,26.1,28.6,27.7,26.5,27.7z"/>
		<g>
			<path class="st7" d="M19.7,20.8L19.7,20.8c-0.5,0-0.8-0.3-0.8-0.8l0,0c0-0.5,0.3-0.8,0.8-0.8h0.1c0.5,0,0.8,0.3,0.8,0.8l0,0
				C20.5,20.4,20.1,20.8,19.7,20.8z"/>
			<path class="st7" d="M25.4,20.8L25.4,20.8c-0.5,0-0.8-0.3-0.8-0.8l0,0c0-0.5,0.3-0.8,0.8-0.8h0.1c0.5,0,0.8,0.3,0.8,0.8l0,0
				C26.2,20.4,25.8,20.8,25.4,20.8z"/>
			<path class="st7" d="M22.6,22.5c-1,0-1.9,0.6-1.9,1.2h3.8C24.5,23.1,23.6,22.5,22.6,22.5z"/>
		</g>
		<g>
			<path class="st8" d="M26,26.5h-6.9c-1.6,0-2.8-1.2-2.8-2.8v-4.3c0-1.6,1.2-2.8,2.8-2.8h6.8c1.6,0,2.8,1.2,2.8,2.8v4.3
				C28.7,25.3,27.5,26.5,26,26.5z"/>
			<path class="st9" d="M26,26.5h-6.9c-1.6,0-2.8-1.2-2.8-2.8v-4.3c0-1.6,1.2-2.8,2.8-2.8h6.8c1.6,0,2.8,1.2,2.8,2.8v4.3
				C28.7,25.3,27.5,26.5,26,26.5z"/>
		</g>
	</g>
</g>
</svg>
